<?xml version="1.0" encoding="UTF-8" standalone="no"?>
<!DOCTYPE svg PUBLIC "-//W3C//DTD SVG 1.1//EN" "http://www.w3.org/Graphics/SVG/1.1/DTD/svg11.dtd">
<svg width="100%" height="100%" viewBox="0 0 1225 511" version="1.1" xmlns="http://www.w3.org/2000/svg" xmlns:xlink="http://www.w3.org/1999/xlink" xml:space="preserve" style="fill-rule:evenodd;clip-rule:evenodd;stroke-linejoin:round;stroke-miterlimit:1.41421;">
    <g transform="matrix(1,0,0,1,-2898.63,-950.047)">
        <g transform="matrix(1,0,0,1,0.113743,0)">
            <g transform="matrix(1,0,0,1,26.4271,-282.126)">
                <g transform="matrix(0.833957,0,0,1,561.928,0.0502117)">
                    <rect x="2770.12" y="1232.12" width="1468.59" height="510.244" style="fill:white;"/>
                </g>
                <g transform="matrix(1,0,0,1,147.284,606.193)">
                    <g transform="matrix(-2.6501,0,0,2.60233,5041.73,-1215.15)">
                        <g transform="matrix(0.639155,0,0,0.639155,242.173,300.887)">
                            <g>
                                <path d="M724.672,738.394L717.512,753.952C711.416,758.559 701.051,762.869 696.585,767.339L740.141,767.339C746.099,767.339 750.982,771.945 750.982,777.587C750.982,781.7 748.377,785.268 744.657,786.899C747.934,788.664 750.147,791.998 750.147,795.802C750.147,800.58 746.661,804.618 741.961,805.742C743.599,807.545 744.586,809.866 744.586,812.409C744.586,818.053 739.711,822.66 733.751,822.66L733.398,822.66C735.304,824.511 736.493,827.043 736.493,829.821C736.493,835.464 731.611,840.069 725.657,840.069L704.503,840.069L678.739,839.947C678.739,839.947 671.276,831.254 670.185,827.891L625.979,827.88L626.014,772.52L651.756,772.534C658.831,748.466 699.393,750.085 703.897,724.674C704.141,724.666 704.386,724.661 704.63,724.661C714.096,724.663 723.176,730.461 724.672,738.394" style="fill:rgb(29,101,188);fill-rule:nonzero;"/>
                            </g>
                        </g>
                        <g transform="matrix(0.697274,0.00191996,-0.00191996,0.697274,201.346,254.94)">
                            <path d="M773.058,713.708C771.698,709.909 769.499,706.677 766.806,704.012L756.281,726.279C755.731,727.448 754.924,728.404 753.988,729.187C751.457,731.306 747.843,731.943 744.651,730.444C742.479,729.413 740.912,727.594 740.158,725.49C739.811,724.517 739.684,723.479 739.7,722.432C739.723,721.207 739.937,719.982 740.493,718.807L751.013,696.545C747.25,696.158 743.353,696.508 739.555,697.868C726.494,702.545 719.557,716.505 723.285,729.656L723.711,731.379C724.789,734.391 726.429,737.019 728.363,739.337L715.585,765.071L724.743,765.071L731.978,750.628C732.646,749.215 734.335,748.61 735.747,749.279C737.16,749.946 737.764,751.635 737.096,753.047L731.073,765.071L739.97,765.071L748.114,748.669C751.134,748.699 754.204,748.296 757.219,747.216L758.82,746.458C771.351,740.987 777.734,726.768 773.058,713.708Z" style="fill:rgb(252,26,13);fill-rule:nonzero;"/>
                        </g>
                        <g transform="matrix(0.761601,0.00209709,-0.00209709,0.761601,168.74,196.611)">
                            <path d="M670.813,842.948C658.286,848.415 651.898,862.634 656.573,875.695C657.933,879.493 660.133,882.729 662.827,885.392L673.348,863.126C673.903,861.958 674.716,860.998 675.643,860.214C678.17,858.093 681.783,857.45 684.979,858.963C687.157,859.985 688.716,861.812 689.469,863.915C689.817,864.887 689.954,865.928 689.936,866.966C689.913,868.185 689.704,869.424 689.144,870.594L678.616,892.857C682.39,893.245 686.28,892.893 690.08,891.532C703.138,886.857 710.073,872.893 706.356,859.744L705.918,858.023C704.84,855.011 703.201,852.382 701.267,850.067L705.121,842.306L672.164,842.306L670.813,842.948Z" style="fill:rgb(252,26,13);fill-rule:nonzero;"/>
                        </g>
                    </g>
                    <g transform="matrix(6.57339,0,0,6.38472,-15041.6,-6109.47)">
                        <text x="2709.47px" y="1104.91px" style="font-family:'ToppanBunkyuMidashiGothicStdN-ExtraBold', 'Toppan Bunkyu Midashi Gothic', sans-serif;font-weight:900;font-size:18px;fill:none;">A<tspan x="2721.78px 2736px 2747.16px " y="1104.91px 1104.91px 1104.91px ">UTO</tspan></text>
                        <text x="2709.47px" y="1104.91px" style="font-family:'ToppanBunkyuMidashiGothicStdN-ExtraBold', 'Toppan Bunkyu Midashi Gothic', sans-serif;font-weight:900;font-size:18px;fill:rgb(29,101,188);">A<tspan x="2721.78px 2736px 2747.16px " y="1104.91px 1104.91px 1104.91px ">UTO</tspan></text>
                    </g>
                    <g transform="matrix(6.68199,0,0,6.56152,-14694.7,-6304.97)">
                        <text x="2686.3px" y="1104.91px" style="font-family:'ToppanBunkyuMidashiGothicStdN-ExtraBold', 'Toppan Bunkyu Midashi Gothic', sans-serif;font-weight:900;font-size:18px;fill:none;">NSPECT<tspan x="2758.17px " y="1104.91px ">O</tspan>R</text>
                        <text x="2686.3px" y="1104.91px" style="font-family:'ToppanBunkyuMidashiGothicStdN-ExtraBold', 'Toppan Bunkyu Midashi Gothic', sans-serif;font-weight:900;font-size:18px;fill:rgb(252,26,13);">NSPECT<tspan x="2758.17px " y="1104.91px ">O</tspan>R</text>
                    </g>
                </g>
            </g>
        </g>
    </g>
</svg>
